<svg xmlns="http://www.w3.org/2000/svg" width="27.621" height="27.621" viewBox="0 0 27.621 27.621">
  <g id="Group_9257" data-name="Group 9257" transform="translate(-1549.871 -21.189)">
    <path id="Path_3731" data-name="Path 3731" d="M15.061,2A13.1,13.1,0,0,0,2,15.061a12.777,12.777,0,0,0,3,8.228L2.392,25.9a1.263,1.263,0,0,0,0,1.828,1.186,1.186,0,0,0,.914.392H15.061A13.061,13.061,0,0,0,15.061,2ZM11.142,15.061Z" transform="translate(1548.621 19.939)" fill="none" stroke="#18191A" stroke-width="1.5"/>
    <g id="dots" transform="translate(1318.071 108.518)">
      <circle id="Ellipse_67" data-name="Ellipse 67" cx="1.678" cy="1.678" r="1.678" transform="translate(245.191 -75.196)"/>
      <circle id="Ellipse_70" data-name="Ellipse 70" cx="2.517" cy="2.517" r="2.517" transform="translate(238.478 -76.035)"/>
      <circle id="Ellipse_68" data-name="Ellipse 68" cx="1.259" cy="1.259" r="1.259" transform="translate(250.226 -74.776)"/>
    </g>
  </g>
</svg>
