<svg id="Group_9244" data-name="Group 9244" xmlns="http://www.w3.org/2000/svg" width="32.208" height="32.208" viewBox="0 0 32.208 32.208">
  <path id="Path_3733" data-name="Path 3733" d="M0,0H32.208V32.208H0Z" fill="none"/>
  <path id="Path_3734" data-name="Path 3734" d="M14.595,28.669a2.692,2.692,0,0,0,2.684-2.684H11.911A2.683,2.683,0,0,0,14.595,28.669Zm8.052-8.052v-6.71c0-4.12-2.2-7.569-6.039-8.481V4.513a2.013,2.013,0,1,0-4.026,0v.913c-3.852.913-6.039,4.348-6.039,8.481v6.71L4.811,22.348a1.342,1.342,0,0,0,.939,2.295H23.425a1.346,1.346,0,0,0,.953-2.295Z" transform="translate(1.509 0.855)" fill="none" stroke="#000" stroke-width="1.5"/>
</svg>
